<?xml version="1.0" encoding="UTF-8" standalone="no"?>
<!DOCTYPE svg PUBLIC "-//W3C//DTD SVG 1.1//EN" "http://www.w3.org/Graphics/SVG/1.1/DTD/svg11.dtd">
<svg width="100%" height="100%" viewBox="0 0 100 100" version="1.1" xmlns="http://www.w3.org/2000/svg" xmlns:xlink="http://www.w3.org/1999/xlink" xml:space="preserve" xmlns:serif="http://www.serif.com/" style="fill-rule:evenodd;clip-rule:evenodd;stroke-linejoin:round;stroke-miterlimit:2;">
    <g transform="matrix(8.32111e-17,-1.35894,1.42375,8.71794e-17,48.4074,40.6743)">
        <path d="M20,-24.7C25.4,-19.3 28.9,-12.5 29.7,-5.6C30.6,1.4 28.8,8.5 25.5,15.3C22.2,22.1 17.5,28.6 10.7,32.4C3.9,36.2 -5,37.2 -14,35.3C-22.9,33.4 -31.9,28.5 -37.5,20.7C-43.1,12.9 -45.4,2.3 -42.2,-6C-39,-14.2 -30.3,-20 -22.4,-24.9C-14.4,-29.9 -7.2,-34 0,-34C7.3,-34 14.6,-30.1 20,-24.7Z" style="fill-rule:nonzero;"/>
    </g>
</svg>
