<?xml version="1.0" encoding="UTF-8" standalone="no"?>
<!DOCTYPE svg PUBLIC "-//W3C//DTD SVG 1.1//EN" "http://www.w3.org/Graphics/SVG/1.1/DTD/svg11.dtd">
<svg width="100%" height="100%" viewBox="0 0 100 100" version="1.1" xmlns="http://www.w3.org/2000/svg" xmlns:xlink="http://www.w3.org/1999/xlink" xml:space="preserve" xmlns:serif="http://www.serif.com/" style="fill-rule:evenodd;clip-rule:evenodd;stroke-linejoin:round;stroke-miterlimit:2;">
    <g transform="matrix(1.18546,0,0,1.36779,51.6943,49.3596)">
        <path d="M25.6,-29.8C32.6,-24.6 37.2,-16 39.4,-6.5C41.6,3 41.4,13.4 36.6,20.5C31.8,27.6 22.3,31.4 13,34C3.7,36.6 -5.3,38.1 -14.2,36.1C-23.1,34.1 -31.8,28.7 -37.3,20.8C-42.8,12.8 -45.1,2.2 -42.6,-6.8C-40.2,-15.8 -32.9,-23.2 -25,-28.2C-17.1,-33.1 -8.6,-35.6 0.4,-36C9.3,-36.5 18.6,-34.9 25.6,-29.8Z" style="fill-rule:nonzero;"/>
    </g>
</svg>
